<?xml version="1.0" encoding="utf-8"?>
<!-- Generator: Adobe Illustrator 22.1.0, SVG Export Plug-In . SVG Version: 6.00 Build 0)  -->
<svg version="1.1" id="Layer_1" xmlns="http://www.w3.org/2000/svg" xmlns:xlink="http://www.w3.org/1999/xlink" x="0px" y="0px"
	 viewBox="0 0 1440 4668" style="enable-background:new 0 0 1440 4668;" xml:space="preserve">
<style type="text/css">
	.st0{opacity:0.73;fill:#F27B93;enable-background:new    ;}
	.st1{opacity:0.61;fill:#F27B93;enable-background:new    ;}
	.st2{opacity:0.9;fill:#F27B93;enable-background:new    ;}
	.st3{opacity:0.64;fill:#3E688C;enable-background:new    ;}
	.st4{opacity:0.27;enable-background:new    ;}
	.st5{opacity:0.65;fill:#3E688C;enable-background:new    ;}
	.st6{fill:#3E688C;}
	.st7{opacity:0.34;fill:#F27B93;enable-background:new    ;}
	.st8{opacity:0.7;fill:#3E688C;enable-background:new    ;}
	.st9{opacity:0.8;fill:#3E688C;enable-background:new    ;}
	.st10{display:none;opacity:0.78;fill:#F27B93;enable-background:new    ;}
	.st11{opacity:0.6;fill:#F27B93;enable-background:new    ;}
	.st12{display:none;opacity:0.44;fill:#3E688C;enable-background:new    ;}
	.st13{opacity:0.51;fill:#F27B93;enable-background:new    ;}
	.st14{opacity:0.57;enable-background:new    ;}
	.st15{display:none;opacity:0.32;fill:#F4B8C6;enable-background:new    ;}
	.st16{opacity:0.55;fill:#3E688C;enable-background:new    ;}
	.st17{opacity:0.31;fill:#3E688C;enable-background:new    ;}
	.st18{opacity:0.44;enable-background:new    ;}
</style>
<polygon class="st0" points="805,3383 804.9,3142.4 0,2738.4 0,4182.4 1194,3585 "/>
<polyline class="st1" points="804.8,3026 805,3383 1440,3712.6 1440,3345.1 "/>
<polygon class="st2" points="1440,2508.5 1040.1,2707.4 1239.3,2807.5 804.8,3026 1440,3345.1 "/>
<polygon class="st3" points="1440,2905.1 1001.7,3125.3 1001.7,3361.8 1235,3242 1357,3304 1121,3423 1439.2,3584.3 1439.2,3713.3 
	883,3423.2 883.9,3064.4 1440,2785 "/>
<polygon class="st4" points="1002.5,3361.8 1235.8,3242 1357.8,3304 1121.8,3423 1440,3584.3 1440,3713.3 999.8,3484 "/>
<polygon class="st5" points="0,2738.4 804.9,3142.4 804.8,3026 844.8,3005.9 0,2581.6 "/>
<polygon class="st6" points="686.5,2926.4 923.8,2807 0,2343 0,2581.6 "/>
<polygon class="st7" points="674.8,1053.8 950.5,1192.4 1440,946.5 1440,682.2 1440,669.2 "/>
<polygon class="st8" points="440,1646.2 285,1567.2 674,1372.2 836,1454.2 1035,1353.2 555,1112.2 477,1152.2 477,1272.2 0,1511.2 
	0,1870.7 "/>
<polygon class="st5" points="0,912.9 399,1113.2 833,894.2 0,478.7 "/>
<polygon class="st9" points="0,1313.2 283.2,1174.6 279.2,1053.2 1439,470.2 1440,351.2 161.7,994.2 162,1112.2 0,1193.2 "/>
<polygon class="st10" points="0,1151.1 200.2,1251.7 1439,629.2 1439,550.2 200.2,1172.3 0,1072.2 "/>
<polygon class="st11" points="1440,590.2 1441,669.2 478,1152.2 478,1272.2 0,1511.2 0,1432.7 398,1232.2 399,1113.2 "/>
<polygon class="st12" points="1440,787.2 477,1272.2 477,1152.6 1440,669.2 "/>
<polygon class="st13" points="437.3,1570 634.5,1669.1 872,1550.2 674.4,1450.9 "/>
<polygon class="st14" points="675,1172.4 555,1112.2 477,1152.2 478,1272.2 "/>
<polygon class="st15" points="399,1113.2 398.7,1152 1438.5,629.4 1438.5,590.4 "/>
<polygon class="st16" points="1346.1,993.2 1267.5,1032.7 1267,1956.2 1347,2009.2 "/>
<polyline class="st17" points="1346,993.2 1441,945.2 1441,2070.2 1347,2009.2 "/>
<polygon class="st18" points="1346,716.3 674.8,1053.8 792.8,1113.1 1440,787.2 1440,682.2 1440,669.2 "/>
</svg>
