<?xml version="1.0" encoding="utf-8"?>
<!-- Generator: Adobe Illustrator 22.1.0, SVG Export Plug-In . SVG Version: 6.00 Build 0)  -->
<svg version="1.1" id="Layer_1" xmlns="http://www.w3.org/2000/svg" xmlns:xlink="http://www.w3.org/1999/xlink" x="0px" y="0px"
	 viewBox="0 0 1900 2500" style="enable-background:new 0 0 1900 2500;" xml:space="preserve">
<style type="text/css">
	.st0{opacity:0.9;fill:#3E688C;enable-background:new    ;}
	.st1{opacity:0.51;fill:#F27B93;enable-background:new    ;}
	.st2{fill:#FFFFFF;}
</style>
<title>Asset 6</title>
<g id="Layer_2_1_">
	<g id="resume">
		<polygon class="st0" points="457,1536 260,1437 892,1119 1090,1218 1900,1624.8 1900,0 0,0 0,1765.1 		"/>
		<polygon class="st1" points="421,1437.1 817.5,1636.4 1295,1397.2 897.7,1197.6 		"/>
		<g id="download">
			<path class="st2" d="M431.5,1126l13.7-7c2.9-1.6,6.1-2.5,9.4-2.7c2.4-0.1,4.7,0.9,6.3,2.7c1.5,1.8,2.3,4.3,2.3,7.6
				c0,3.4-0.8,6.8-2.3,9.9c-1.6,3.4-3.7,6.5-6.3,9.2c-2.7,2.8-5.9,5.2-9.4,6.9l-13.7,7V1126z M444.9,1149.7c2.9-1.5,5.5-3.4,7.7-5.7
				c2.1-2.2,3.9-4.7,5.1-7.5c1.2-2.5,1.8-5.3,1.8-8c0.1-2.2-0.5-4.4-1.8-6.2c-1.3-1.5-3.2-2.3-5.1-2.2c-2.7,0.1-5.4,0.8-7.7,2.2
				l-9.9,5v27.5L444.9,1149.7z"/>
			<path class="st2" d="M474.1,1136.4c-1.8,0-3.5-0.8-4.6-2.2c-1.2-1.7-1.8-3.7-1.7-5.8c0-2.6,0.6-5.1,1.7-7.5
				c1.1-2.5,2.7-4.9,4.6-6.9s4.1-3.7,6.6-5c2-1.1,4.3-1.7,6.6-1.7c1.8,0,3.5,0.8,4.6,2.2c1.2,1.7,1.8,3.7,1.7,5.8
				c0,2.6-0.6,5.1-1.7,7.5c-1.1,2.5-2.7,4.9-4.6,6.9s-4.1,3.7-6.6,5C478.7,1135.8,476.4,1136.4,474.1,1136.4z M485.5,1128
				c1.4-1.5,2.5-3.3,3.3-5.2c0.8-1.8,1.2-3.8,1.2-5.7c0.1-1.6-0.3-3.2-1.2-4.5c-0.8-1.1-2-1.7-3.3-1.8c-1.7,0-3.4,0.4-4.8,1.2
				c-1.8,0.9-3.4,2.2-4.8,3.7s-2.5,3.3-3.4,5.2c-0.8,1.8-1.2,3.8-1.2,5.8c-0.1,1.6,0.3,3.2,1.2,4.5c0.8,1.1,2,1.7,3.4,1.8
				c1.7,0,3.4-0.4,4.8-1.2C482.5,1130.8,484.2,1129.5,485.5,1128L485.5,1128z"/>
			<path class="st2" d="M536.8,1080.6l-9.6,30.1l-3.2,1.6l-8-16.6l-8,24.7l-3.2,1.6l-9.5-20.4l3.3-1.7l7.9,17.4l8.1-25.6l2.9-1.5
				l8.1,17.4l8-25.5L536.8,1080.6z"/>
			<path class="st2" d="M562.4,1070.2c1.9,0.9,2.8,3.1,2.8,6.6v14.6l-3.4,1.7v-14.3c0-2.6-0.7-4.3-2-5s-3.2-0.4-5.6,0.8
				c-2.6,1.3-4.8,3.3-6.5,5.7c-1.6,2.3-2.4,5.1-2.4,7.9v13.3l-3.3,1.7V1078l3.3-1.7v4.7c1-2.1,2.3-3.9,3.9-5.5
				c1.7-1.7,3.6-3.1,5.7-4.2C558,1069.7,560.5,1069.3,562.4,1070.2z"/>
			<path class="st2" d="M574.5,1051.1l3.4-1.7v35.6l-3.4,1.7V1051.1z"/>
			<path class="st2" d="M591.1,1076.8c-1.8,0-3.5-0.8-4.6-2.2c-1.2-1.7-1.8-3.7-1.7-5.8c0-2.6,0.6-5.1,1.7-7.5
				c1.1-2.5,2.7-4.9,4.6-6.9c1.9-2,4.1-3.7,6.6-5c2-1.1,4.3-1.7,6.6-1.7c1.8,0,3.5,0.8,4.6,2.2c1.2,1.7,1.8,3.7,1.7,5.8
				c0,2.6-0.6,5.1-1.7,7.5c-1.1,2.6-2.7,4.9-4.6,6.9c-1.9,2-4.1,3.7-6.6,5C595.7,1076.2,593.4,1076.8,591.1,1076.8z M602.5,1068.4
				c1.4-1.5,2.5-3.3,3.3-5.2c0.8-1.8,1.2-3.8,1.2-5.7c0.1-1.6-0.3-3.2-1.2-4.5c-0.8-1.1-2-1.7-3.3-1.8c-1.7,0-3.4,0.4-4.8,1.2
				c-1.8,0.9-3.5,2.2-4.8,3.7c-1.4,1.5-2.5,3.3-3.4,5.2c-0.8,1.8-1.2,3.8-1.2,5.8c-0.1,1.6,0.3,3.2,1.2,4.5c0.8,1.1,2,1.7,3.4,1.8
				c1.7,0,3.4-0.4,4.8-1.2C599.5,1071.2,601.1,1069.9,602.5,1068.4z"/>
			<path class="st2" d="M633.7,1033.5c1.8,0.8,2.6,2.8,2.6,6v15.6l-3.3,1.7v-3.9c-0.8,1.8-2,3.4-3.4,4.8c-1.6,1.5-3.3,2.8-5.3,3.8
				c-2.8,1.4-5.1,1.9-6.7,1.4c-1.7-0.5-2.5-1.8-2.5-4c0.1-2.3,0.9-4.6,2.3-6.4c2-2.5,4.5-4.4,7.4-5.8l8-4.1v-1.5
				c0-2.2-0.6-3.5-1.8-4s-3-0.2-5.3,1c-1.7,0.9-3.2,1.9-4.6,3.1c-1.4,1.2-2.7,2.6-3.8,4.1l-1.5-1.8c1.3-1.8,2.9-3.4,4.6-4.9
				c1.7-1.5,3.6-2.7,5.7-3.8C629.4,1033.3,632,1032.8,633.7,1033.5z M629.9,1054.7c1.4-1.6,2.4-3.4,3.1-5.4v-4.1l-7.9,4
				c-4.3,2.2-6.5,4.8-6.5,7.8c0,1.5,0.6,2.4,1.7,2.6c1.1,0.2,2.7-0.1,4.7-1.1C626.8,1057.6,628.5,1056.3,629.9,1054.7L629.9,1054.7z
				"/>
			<path class="st2" d="M668.8,1003v35.6l-3.3,1.7v-5c-1,2.2-2.3,4.2-4,6c-1.6,1.7-3.6,3.2-5.7,4.2c-2,1.1-4.2,1.7-6.4,1.6
				c-1.8,0-3.4-0.9-4.5-2.3c-1.2-1.7-1.7-3.8-1.6-5.8c0-2.6,0.6-5.1,1.6-7.5c1.1-2.5,2.6-4.8,4.5-6.8c1.8-2,4-3.6,6.4-4.9
				c1.7-1,3.6-1.5,5.5-1.6c1.5,0,3,0.6,4.1,1.7v-15.1L668.8,1003z M660.8,1038.7c1.4-1.5,2.6-3.3,3.4-5.2c0.8-1.8,1.2-3.8,1.2-5.8
				c0.1-1.6-0.3-3.2-1.2-4.5c-0.8-1.1-2-1.7-3.4-1.8c-1.7,0-3.3,0.4-4.8,1.2c-1.8,0.9-3.5,2.2-4.8,3.7c-1.4,1.5-2.5,3.3-3.4,5.2
				c-0.8,1.8-1.2,3.8-1.2,5.8c-0.1,1.6,0.3,3.2,1.2,4.5c0.8,1.1,2,1.7,3.4,1.8c1.7,0,3.4-0.4,4.8-1.2
				C657.8,1041.4,659.5,1040.2,660.8,1038.7L660.8,1038.7z"/>
			<path class="st2" d="M714.5,1015.4l-7.7-6.9c-0.9,0.5-1.8,1-2.7,1.5l-9,4.6v10.7l-3.6,1.8v-33.6l12.6-6.4
				c4.3-2.2,7.6-2.9,10.1-2.1c2.4,0.8,3.7,3,3.7,6.6c0,2.7-0.7,5.3-2,7.7c-1.4,2.6-3.4,4.9-5.7,6.8l8.2,7.3L714.5,1015.4z
				 M711.7,1000.9c1.7-2.2,2.6-4.8,2.6-7.5c0-2.7-0.9-4.4-2.6-4.9s-4.3,0-7.6,1.7l-8.9,4.6v16.9l8.9-4.6
				C707,1005.6,709.6,1003.5,711.7,1000.9L711.7,1000.9z"/>
			<path class="st2" d="M747.5,987l-21.1,10.8c0.2,2.5,1.2,4.1,3,4.8c1.8,0.7,4.1,0.3,6.9-1.1c1.6-0.8,3-1.8,4.3-3s2.5-2.7,3.4-4.2
				l1.9,1.2c-1.1,1.9-2.6,3.7-4.2,5.2c-1.7,1.5-3.5,2.9-5.5,3.9c-2.1,1.2-4.5,1.8-6.9,1.9c-1.8,0-3.5-0.8-4.7-2.2
				c-1.2-1.7-1.8-3.8-1.7-5.8c0-2.6,0.6-5.1,1.6-7.4c1.1-2.5,2.6-4.8,4.4-6.8c1.8-2,3.9-3.6,6.3-4.8c1.9-1.1,4.1-1.6,6.3-1.6
				c1.7,0.1,3.3,0.9,4.4,2.3c1.1,1.7,1.7,3.8,1.6,5.8V987z M729.2,987.7c-1.6,2.2-2.5,4.8-2.8,7.5l17.9-9.1
				c-0.2-2.4-1.2-3.9-2.8-4.6s-3.7-0.4-6.2,0.8C732.9,983.5,730.8,985.4,729.2,987.7L729.2,987.7z"/>
			<path class="st2" d="M755.4,993.9c-1.4,0.4-2.9,0.4-4.4,0l1.5-3.5c1.3,0.3,2.7,0.3,4,0c1.7-0.3,3.4-0.9,5-1.8
				c1.9-0.9,3.7-2.1,5.1-3.7c1-1,1.6-2.4,1.7-3.9c0-0.9-0.3-1.5-0.9-1.7c-0.8-0.2-1.6-0.2-2.3,0c-1.2,0.3-2.5,0.7-3.7,1.1
				c-1.6,0.5-3.3,1-5,1.3c-1.1,0.3-2.2,0.1-3.2-0.4c-0.9-0.5-1.3-1.6-1.3-3.3c0.1-2.4,1-4.7,2.6-6.5c2-2.4,4.5-4.4,7.3-5.8
				c1.6-0.8,3.2-1.4,4.9-1.9c1.3-0.4,2.7-0.5,4-0.4l-1.5,3.4c-2.1-0.4-4.6,0.2-7.4,1.6c-1.9,0.9-3.5,2.1-4.9,3.7
				c-1,1.1-1.6,2.4-1.7,3.9c0,1,0.3,1.6,0.9,1.8c0.7,0.3,1.6,0.3,2.3,0.1c1.3-0.3,2.6-0.7,3.8-1.1c1.6-0.5,3.2-1,4.8-1.3
				c1.1-0.3,2.2-0.1,3.1,0.4c0.9,0.5,1.3,1.6,1.3,3.2c-0.1,2.5-1.1,4.9-2.7,6.7c-2.1,2.5-4.7,4.4-7.7,5.8
				C759.5,992.7,757.5,993.4,755.4,993.9z"/>
			<path class="st2" d="M800.8,946.1v25.3l-3.3,1.7v-4.6c-1.9,4.1-5.1,7.4-9.1,9.5c-3.3,1.7-5.9,2.1-7.8,1.2
				c-1.9-0.9-2.9-3.1-2.9-6.6V958l3.4-1.7v14.3c0,2.7,0.7,4.3,2,5c1.3,0.7,3.2,0.4,5.6-0.8c2.6-1.3,4.7-3.2,6.3-5.6
				c1.5-2.4,2.3-5.1,2.3-7.9v-13.2L800.8,946.1z"/>
			<path class="st2" d="M849.3,924c1.8,0.9,2.7,3.1,2.7,6.7v14.6l-3.4,1.7v-14.3c0-2.6-0.6-4.3-1.9-5s-3-0.5-5.3,0.7
				c-2.5,1.3-4.7,3.2-6.2,5.6c-1.5,2.3-2.3,5.1-2.3,7.8V955l-3.4,1.7v-14.3c0-2.6-0.6-4.3-1.9-5c-1.3-0.7-3.1-0.5-5.4,0.7
				c-2.5,1.3-4.6,3.2-6.2,5.6c-1.5,2.3-2.3,5.1-2.3,7.9v13.2l-3.4,1.7v-25.2l3.3-1.7v4.6c0.9-2,2.2-3.9,3.8-5.5
				c1.6-1.7,3.5-3,5.5-4.1c1.7-1,3.6-1.5,5.5-1.5c1.5,0.1,2.8,0.9,3.5,2.2c1-2.2,2.3-4.3,4-6c1.7-1.8,3.8-3.3,6-4.5
				C845,923.4,847.5,923.1,849.3,924z"/>
			<path class="st2" d="M883.3,917.8l-21.1,10.8c0.2,2.5,1.2,4.1,3,4.8c1.8,0.7,4.1,0.3,6.9-1.1c1.6-0.8,3-1.8,4.3-3
				s2.5-2.7,3.4-4.2l1.9,1.2c-1.1,1.9-2.6,3.7-4.2,5.2c-1.7,1.5-3.5,2.9-5.5,3.9c-2.1,1.2-4.5,1.8-6.9,1.9c-1.8,0-3.5-0.8-4.7-2.2
				c-1.2-1.7-1.8-3.7-1.7-5.8c0-2.6,0.6-5.1,1.6-7.4c1.1-2.5,2.6-4.8,4.4-6.8c1.8-2,3.9-3.6,6.3-4.9c1.9-1.1,4.1-1.6,6.3-1.6
				c1.7,0.1,3.3,0.9,4.4,2.3c1.1,1.7,1.7,3.8,1.6,5.8V917.8z M865,918.5c-1.6,2.2-2.5,4.8-2.8,7.5l17.9-9.1
				c-0.2-2.4-1.2-3.9-2.8-4.6s-3.7-0.4-6.2,0.8C868.7,914.3,866.5,916.2,865,918.5L865,918.5z"/>
			<polygon class="st2" points="656.2,1117.8 626.3,1105 627.5,1102.2 655.1,1114.1 682.6,1073.7 685.1,1075.4 			"/>
		</g>
	</g>
</g>
</svg>
