<svg xmlns="http://www.w3.org/2000/svg" viewBox="0 0 434.73 218.21">
    <defs>
        <style>
            .cls-1{fill:#f27b93;}.cls-2{opacity:0.18;}.cls-3{fill:#fff;}.cls-4,.cls-5{fill:none;stroke:#fff;stroke-linecap:round;stroke-miterlimit:10;}.cls-4{stroke-width:3px;}.cls-5{stroke-width:10px;}
        </style>
    </defs>
    <title>Asset 7</title>
    <g id="Layer_2">
        <g id="dark_1">
            <polygon class="cls-1" points="0 119.12 197.23 218.21 434.73 99.28 237.09 0 0 119.12"/>
            <g class="cls-2">
                <path class="cls-3"
                      d="M213.79,53.81l34.67,17.33a2.39,2.39,0,0,1,0,4.27L213.79,92.74a2.35,2.35,0,0,1-2.13,0L177,75.41a2.39,2.39,0,0,1,0-4.27l34.67-17.33A2.42,2.42,0,0,1,213.79,53.81Z"/>
                <line class="cls-4" x1="256.73" y1="81.28" x2="320.73" y2="112.28"/>
                <line class="cls-4" x1="242.73" y1="88.28" x2="306.73" y2="119.28"/>
                <line class="cls-4" x1="227.73" y1="95.28" x2="291.73" y2="126.28"/>
                <path class="cls-3"
                      d="M120.39,98.61l36.67,18.33a1.49,1.49,0,0,1,0,2.67l-36.67,18.33a1.48,1.48,0,0,1-1.33,0L82.39,119.61a1.49,1.49,0,0,1,0-2.67l36.67-18.33A1.48,1.48,0,0,1,120.39,98.61Z"/>
                <line class="cls-4" x1="163.73" y1="126.28" x2="227.73" y2="157.28"/>
                <line class="cls-4" x1="149.73" y1="133.28" x2="213.73" y2="164.28"/>
                <line class="cls-4" x1="134.73" y1="140.28" x2="198.73" y2="171.28"/>
                <line class="cls-5" x1="253.73" y1="47.28" x2="332.73" y2="85.54"/>
                <line class="cls-4" x1="162.73" y1="78.67" x2="275.99" y2="133.53"/>
                <line class="cls-4" x1="147.73" y1="85.67" x2="260.99" y2="140.53"/>
                <line class="cls-4" x1="133.73" y1="92.67" x2="246.99" y2="147.53"/>
            </g>
        </g>
    </g>
</svg>