<?xml version="1.0" standalone="no"?>
<!DOCTYPE svg PUBLIC "-//W3C//DTD SVG 20010904//EN">
<svg version="1.0" xmlns="http://www.w3.org/2000/svg"
 width="648.000000pt" height="648.000000pt" viewBox="0 0 648.000000 648.000000"
 preserveAspectRatio="xMidYMid meet">
<metadata>
Created by potrace 1.11, written by Peter Selinger 2001-2013
</metadata>
<g transform="translate(0.000000,648.000000) scale(0.100000,-0.100000)"
fill="#000000" stroke="none">
<path d="M289 6438 c20 -46 82 -187 111 -253 10 -22 28 -62 40 -90 13 -27 31
-68 40 -90 18 -42 50 -114 80 -180 29 -65 45 -100 130 -295 45 -102 90 -203
100 -225 10 -22 62 -139 115 -260 53 -121 105 -238 115 -260 10 -22 53 -119
95 -215 43 -96 84 -191 93 -210 9 -19 16 -37 17 -40 1 -3 11 -25 22 -50 11
-25 66 -148 122 -275 56 -126 108 -243 115 -260 13 -28 22 -48 74 -165 11 -25
43 -99 72 -165 29 -66 66 -148 81 -182 40 -89 62 -137 63 -143 2 -5 17 -38 57
-125 12 -27 23 -52 24 -55 0 -3 13 -31 28 -64 15 -32 27 -60 27 -62 0 -2 15
-37 33 -76 19 -40 46 -102 62 -138 27 -64 50 -114 95 -215 13 -27 31 -68 40
-91 l18 -41 222 0 222 -1 33 71 c18 40 45 100 59 135 15 34 40 92 56 128 17
35 30 69 30 74 0 6 4 10 10 10 5 0 9 4 7 8 -1 5 10 35 25 68 14 32 36 82 48
109 42 95 48 110 84 188 20 44 36 80 36 82 0 2 16 38 35 79 19 42 35 78 35 80
0 3 14 35 32 73 17 37 55 122 84 188 l53 120 16 -40 c9 -22 29 -67 45 -100 15
-33 51 -114 80 -180 73 -166 84 -193 111 -250 13 -27 24 -52 24 -55 1 -3 11
-25 22 -50 11 -25 37 -83 58 -130 42 -96 63 -142 95 -215 12 -27 28 -63 35
-80 7 -16 27 -59 43 -95 75 -165 84 -191 85 -272 1 -43 -2 -78 -6 -78 -5 0 -5
-5 -1 -11 10 -16 11 -229 1 -229 -4 0 -4 -8 0 -17 10 -22 9 -225 -1 -241 -4
-7 -4 -12 1 -12 4 0 8 -47 8 -105 0 -58 -4 -105 -8 -105 -5 0 -5 -5 -1 -12 10
-16 11 -228 1 -228 -5 0 -5 -5 -1 -11 10 -17 11 -229 1 -229 -5 0 -5 -5 -1
-11 10 -17 11 -229 1 -229 -5 0 -5 -5 -1 -11 10 -16 11 -229 1 -229 -4 0 -4
-8 0 -17 10 -22 9 -185 -1 -201 -4 -7 -4 -12 1 -12 4 0 8 -37 8 -82 l0 -83
243 0 243 0 2 1131 c1 791 5 1135 13 1145 6 8 20 37 32 64 11 28 35 82 53 120
18 39 33 72 34 75 3 8 22 52 48 110 13 30 77 174 142 320 64 146 130 293 146
328 16 35 29 65 29 67 0 2 18 43 40 90 22 47 40 88 40 90 0 3 14 35 31 72 17
38 49 109 71 158 22 50 51 114 64 143 13 29 24 54 24 56 0 4 39 91 101 224 16
35 29 65 29 67 0 2 15 36 34 77 18 40 55 123 81 183 46 106 64 146 121 272 25
56 46 103 49 113 1 3 11 25 22 50 11 25 48 108 82 185 34 77 68 154 76 170 34
75 64 144 84 190 12 28 26 59 31 70 5 11 27 60 50 109 22 49 40 95 40 102 0 8
4 14 10 14 5 0 9 3 8 8 -1 8 5 25 50 122 16 36 39 88 51 115 12 28 29 64 36
80 28 62 54 125 54 130 0 3 9 22 20 43 22 40 81 171 81 178 0 2 -112 4 -248 4
l-249 0 -195 -442 c-108 -244 -227 -513 -264 -598 -38 -85 -72 -158 -77 -161
-5 -3 -9 -10 -9 -15 -1 -14 -8 -35 -28 -80 -10 -22 -78 -175 -151 -340 -72
-164 -147 -332 -165 -372 -19 -41 -34 -75 -34 -77 0 -2 -15 -36 -34 -77 -18
-40 -45 -101 -60 -135 -25 -61 -49 -114 -96 -218 -13 -27 -24 -52 -25 -55 -4
-13 -27 -64 -70 -160 -54 -121 -69 -153 -120 -270 -38 -88 -51 -116 -104 -233
-17 -38 -31 -70 -31 -72 0 -2 -15 -36 -34 -77 -18 -40 -48 -109 -66 -153 -18
-44 -36 -84 -41 -89 -4 -4 -17 14 -29 40 -12 27 -33 73 -46 102 -13 29 -24 54
-24 56 0 3 -15 37 -34 78 -19 40 -66 147 -106 238 -40 91 -86 194 -102 230
-17 36 -31 70 -32 75 -1 6 -6 17 -11 25 -5 8 -38 80 -72 159 -34 79 -72 163
-83 186 -11 23 -20 44 -20 48 0 4 -13 34 -29 67 -26 54 -28 63 -16 88 7 15 20
43 28 62 8 19 44 101 81 183 36 81 66 154 66 162 0 8 4 15 8 15 6 0 34 61 37
80 0 3 10 25 22 50 12 25 40 88 63 140 23 52 52 118 64 145 13 28 47 104 76
170 29 66 65 148 81 183 16 35 29 65 29 67 0 2 17 41 39 87 21 45 51 112 66
148 15 36 35 83 45 105 92 201 130 290 130 301 0 8 5 14 12 14 6 0 9 3 5 6 -3
4 5 26 18 50 14 24 23 44 20 44 -2 0 9 26 24 58 54 111 69 147 64 155 -2 4
-104 7 -227 7 l-223 0 -53 -122 c-29 -68 -65 -150 -80 -183 -60 -130 -90 -197
-90 -200 0 -4 -31 -75 -71 -160 -43 -94 -89 -197 -89 -200 0 -2 -14 -34 -31
-72 -42 -93 -68 -152 -84 -188 -7 -16 -25 -57 -40 -90 -15 -33 -33 -73 -40
-90 -7 -16 -23 -52 -35 -80 -12 -27 -39 -88 -60 -135 -21 -47 -49 -110 -63
-140 -13 -30 -26 -61 -29 -69 -2 -8 -23 31 -47 85 -24 55 -51 117 -61 139 -10
22 -37 83 -60 135 -23 52 -50 114 -61 138 -28 63 -57 126 -80 180 -11 26 -27
61 -34 77 -37 81 -58 130 -60 135 0 3 -10 25 -22 50 -11 25 -53 119 -93 210
-39 91 -85 193 -101 228 -16 35 -29 65 -29 67 0 2 -15 36 -34 77 -18 40 -47
103 -64 141 l-31 67 -260 0 c-144 0 -261 -4 -261 -9 0 -9 23 -62 86 -199 19
-41 34 -76 34 -79 0 -2 11 -28 24 -56 13 -29 33 -72 44 -97 39 -89 64 -146 80
-180 9 -19 17 -37 18 -40 0 -3 13 -32 28 -65 15 -33 37 -82 48 -110 12 -27 25
-54 30 -60 4 -5 8 -17 8 -27 0 -10 5 -18 10 -18 6 0 10 -7 10 -15 0 -8 4 -23
10 -33 5 -9 19 -39 31 -67 12 -27 32 -72 44 -100 13 -27 118 -264 233 -525
115 -261 221 -500 235 -530 14 -30 27 -62 29 -70 2 -8 7 -18 12 -21 17 -13 8
-55 -26 -124 -19 -38 -34 -72 -34 -75 -1 -3 -8 -21 -17 -40 -39 -87 -73 -164
-124 -280 -30 -69 -68 -153 -84 -188 -16 -35 -29 -65 -29 -67 0 -2 -14 -34
-32 -72 -18 -37 -33 -70 -33 -73 -1 -5 -21 -50 -53 -120 -11 -25 -39 -88 -62
-140 -24 -52 -56 -124 -72 -160 l-29 -64 -90 204 c-49 113 -95 216 -101 230
-6 14 -12 27 -13 30 0 3 -10 25 -22 50 -11 25 -53 119 -93 210 -75 172 -103
235 -148 334 -15 32 -27 62 -28 65 0 3 -15 37 -32 75 -18 38 -32 70 -32 73 0
2 -18 42 -40 89 -22 47 -40 88 -40 90 0 2 -11 27 -24 56 -35 77 -59 133 -96
218 -32 73 -58 132 -106 238 -13 29 -24 54 -24 57 0 2 -13 32 -29 67 -16 35
-71 158 -121 273 -51 116 -103 235 -117 265 -14 30 -31 69 -38 85 -32 74 -158
362 -175 399 -10 22 -34 77 -53 121 -44 101 -107 243 -141 317 -23 50 -46 104
-51 118 -14 41 -5 40 -261 40 l-243 0 18 -42z"/>
</g>
</svg>
